<svg width="214" height="77" viewBox="0 0 214 77" fill="none" xmlns="http://www.w3.org/2000/svg">
<path d="M153.078 26.1875V44.4688H157.062V29.9375L169.484 30.1719L171.125 31.8125L171.359 34.1562L175.812 33.9219V31.8125L174.641 29L171.594 26.6562L153.078 26.1875Z" fill="#1662C7"/>
<path d="M147.922 49.3906V34.1562H143.938V49.3906H147.922Z" fill="#1662C7"/>
<path d="M126.359 45.4062L124.953 42.5938L123.078 44.4688L121.672 44.7031L123.547 49.3906H130.578L134.094 40.9531L130.344 40.25L128 45.4062H126.359Z" fill="#1662C7"/>
<path d="M136.203 26.1875L130.344 40.25L134.094 40.9531L140.656 26.1875H136.203Z" fill="#1379C1"/>
<path d="M143.938 26.1875V34.1562H147.922V26.1875H143.938Z" fill="#1379C1"/>
<path d="M120.969 33.2188L116.984 33.6875L121.672 44.7031L123.078 44.4688L124.953 42.5938L120.969 33.2188Z" fill="#1379C1"/>
<path d="M94.25 45.1719L92.8438 43.2969L88.8594 43.5312L90.0312 47.0469L93.0781 49.1562L106.672 49.3906L109.484 48.2188L111.828 45.1719L112.297 37.9062H108.312L108.078 43.0625L105.969 45.4062L95.6562 45.6406L94.25 45.1719Z" fill="#1379C1"/>
<path d="M113.703 26.1875L116.984 33.6875L120.969 33.2188L118.156 26.1875H113.703Z" fill="#1294C2"/>
<path d="M107.844 29.4688L106.906 30.6406L108.312 33.6875V37.9062H112.297V32.5156L110.656 29L107.844 29.4688Z" fill="#1294C2"/>
<path d="M88.625 35.0938L88.8594 43.5312L92.8438 43.2969L92.6094 35.0938H88.625Z" fill="#1294C2"/>
<path d="M83.9375 35.7969L79.9531 36.0312V42.8281L75.0312 36.7344L71.75 38.8438L79.7188 49.3906H83.9375V35.7969Z" fill="#1294C2"/>
<path d="M66.8281 49.3906V40.7188H62.8438V49.3906H66.8281Z" fill="#1294C2"/>
<path d="M47.1406 41.8906L46.2031 42.5938L43.1562 43.7656L43.8594 44.4688L43.3906 45.4062H41.0469L40.1094 44.7031L38.2344 46.5781L36.5938 46.8125L37.7656 48.6875L39.875 49.3906L32.6094 56.6562L31.6719 57.125L30.0312 56.6562L26.2812 52.9062L23 55.25L28.8594 60.875L33.3125 61.1094L34.9531 60.1719L50.8906 44L49.4844 42.5938H47.8438L47.1406 41.8906Z" fill="#1294C2"/>
<path d="M79.9531 26.1875V36.0312L83.9375 35.7969V26.1875H79.9531Z" fill="#11A6C5"/>
<path d="M89.3281 29.7031L88.625 35.0938H92.6094L93.0781 31.5781L95.4219 29.9375H105.266L106.906 30.6406L107.844 29.4688L110.656 29L109.016 27.125L106.438 26.1875L93.3125 26.4219L90.9688 27.5938L89.3281 29.7031Z" fill="#11A6C5"/>
<path d="M67.0625 30.1719L62.8438 31.1094V40.7188H66.8281V32.5156L71.75 38.8438L75.0312 36.7344L68.7031 28.5312L67.0625 30.1719Z" fill="#11A6C5"/>
<path d="M50.4219 38.375L47.1406 41.8906L47.8438 42.5938H49.4844L50.8906 44L54.4062 40.4844L54.875 36.5L53.9375 34.625L49.7188 30.4062L49.4844 35.7969L50.4219 36.7344V38.375Z" fill="#11A6C5"/>
<path d="M41.9844 42.8281L43.1562 43.7656L46.2031 42.5938V35.0938H41.9844V42.8281Z" fill="#11A6C5"/>
<path d="M34.7188 38.375L30.7344 40.0156L36.5938 46.8125L38.2344 46.5781L40.1094 44.7031L34.7188 38.375Z" fill="#11A6C5"/>
<path d="M18.3125 47.2812L16.4375 48.6875L23 55.25L26.2812 52.9062L20.6562 47.0469L18.3125 47.2812Z" fill="#11A6C5"/>
<path d="M39.1719 23.1406L37.5312 23.6094L41.9844 28.2969V35.0938H46.2031V26.6562L40.8125 21.2656L39.1719 23.1406Z" fill="#10BFCD"/>
<path d="M62.8438 26.1875V31.1094L67.0625 30.1719L68.7031 28.5312L67.2969 26.1875H62.8438Z" fill="#10BFCD"/>
<path d="M26.5156 28.5312L23.4688 31.3438L30.7344 40.0156L34.7188 38.375L26.5156 28.5312Z" fill="#10BFCD"/>
<path d="M20.6562 33.9219L16.6719 34.1562L16.9062 43.0625L12.9219 39.5469L9.875 42.125L16.4375 48.6875L18.3125 47.2812L20.6562 47.0469V33.9219Z" fill="#10BFCD"/>
<path d="M8 39.3125L9.875 42.125L12.9219 39.5469L12.2188 38.375L12.4531 36.5L16.4375 32.5156L16.6719 34.1562L20.6562 33.9219V31.8125L19.0156 30.4062L19.4844 29.7031H21.8281L23.4688 31.3438L26.5156 28.5312L24.6406 26.1875L23 25.9531L30.7344 18.4531L32.8438 18.9219L37.5312 23.6094L39.1719 23.1406L40.8125 21.2656L33.7812 14.4688L30.7344 14L28.625 14.7031L9.17188 33.9219L8 36.2656V39.3125Z" fill="#10DADC"/>
<path d="M157.062 49.3906H153.078V44.4688H157.062V49.3906ZM175.578 36.5L173.703 39.0781L171.359 40.25L168.078 40.7188L176.516 49.3906H170.656L160.109 37.2031L169.484 36.9688L170.656 36.2656L171.359 34.1562L175.812 33.9219L175.578 36.5ZM205.109 49.3906H200.656L198.078 43.5312H185.188L182.609 49.3906H178.156L188.703 26.1875H194.797L205.109 49.3906ZM187.062 39.7812H196.203L191.516 29.9375L187.062 39.7812Z" fill="#1941C8"/>
</svg>
